<?xml version="1.0" encoding="iso-8859-1"?>
<!-- Generator: Adobe Illustrator 19.0.0, SVG Export Plug-In . SVG Version: 6.00 Build 0)  -->
<svg version="1.1" id="Layer_1" xmlns="http://www.w3.org/2000/svg" xmlns:xlink="http://www.w3.org/1999/xlink" x="0px" y="0px"
	 viewBox="0 0 512 512" style="enable-background:new 0 0 512 512;" xml:space="preserve">
<g>
	<path style="fill:#A72328;" d="M437.992,394.082c-2.349,0-4.698-0.6-6.81-1.799L394.777,371.6
		c-6.622-3.763-8.939-12.179-5.177-18.8c3.761-6.621,12.182-8.936,18.798-5.177l15.808,8.981v-92.183
		c0-2.538-0.99-4.998-2.731-6.831l-78.574-61.45c-5.999-4.691-7.058-13.356-2.367-19.354c4.691-6,13.358-7.059,19.354-2.367
		l79.199,61.938c0.342,0.267,0.67,0.55,0.986,0.849c7.441,7.046,11.71,16.965,11.71,27.214v115.874c0,4.908-2.61,9.447-6.853,11.917
		C442.784,393.458,440.388,394.082,437.992,394.082z"/>
	<path style="fill:#A72328;" d="M74.007,394.082c-2.396,0-4.793-0.625-6.935-1.871c-4.243-2.469-6.853-7.008-6.853-11.917V264.42
		c0-10.25,4.269-20.167,11.71-27.214c0.316-0.299,0.644-0.582,0.986-0.849l79.199-61.938c5.998-4.691,14.666-3.63,19.354,2.367
		c4.691,5.998,3.632,14.663-2.367,19.354l-78.574,61.45c-1.743,1.831-2.731,4.292-2.731,6.83v92.183l15.808-8.981
		c6.62-3.76,15.036-1.444,18.798,5.177c3.763,6.621,1.445,15.037-5.177,18.8l-36.405,20.683
		C78.706,393.483,76.355,394.082,74.007,394.082z"/>
</g>
<circle style="fill:#F4DABB;" cx="255.998" cy="247.767" r="47.044"/>
<g>
	<path style="fill:#A72328;" d="M255.999,308.595c-33.543,0-60.832-27.289-60.832-60.832s27.289-60.832,60.832-60.832
		s60.832,27.289,60.832,60.832S289.542,308.595,255.999,308.595z M255.999,214.507c-18.338,0-33.256,14.918-33.256,33.256
		s14.918,33.256,33.256,33.256s33.256-14.918,33.256-33.256S274.337,214.507,255.999,214.507z"/>
	<path style="fill:#A72328;" d="M350.997,415.551H161.001c-7.605,0-13.774-6.158-13.788-13.763
		c-0.004-2.279-0.414-228.292-0.385-259.483c0-5.362,0.499-10.97,1.484-16.654c8.089-46.556,47.363-89.455,70.053-110.886
		C228.45,5.244,241.816,0,255.999,0c14.184,0,27.548,5.244,37.634,14.765c22.692,21.43,61.964,64.331,70.053,110.88
		c0.986,5.69,1.485,11.298,1.485,16.672c0.029,31.178-0.381,257.191-0.385,259.47C364.773,409.394,358.603,415.551,350.997,415.551z
		 M174.764,387.976h162.47c0.088-49.814,0.385-218.998,0.361-245.645c0-3.814-0.364-7.837-1.08-11.971
		c-6.973-40.127-45.552-80.186-61.815-95.546c-4.944-4.667-11.586-7.239-18.7-7.239c-7.115,0-13.757,2.571-18.702,7.24
		c-16.261,15.358-54.841,55.417-61.815,95.551c-0.716,4.128-1.078,8.151-1.078,11.951
		C174.379,168.975,174.675,338.162,174.764,387.976z"/>
</g>
<path style="fill:#F4DABB;" d="M160.998,375.716v90.83c0,17.488,14.178,31.667,31.667,31.667s31.666-14.178,31.666-31.667V419.04
	c0,17.488,14.178,31.667,31.667,31.667s31.667-14.178,31.667-31.667v15.835c0,17.488,14.178,31.667,31.667,31.667
	s31.667-14.178,31.667-31.667v-59.159H160.998z"/>
<path style="fill:#A72328;" d="M192.665,512c-25.065,0-45.456-20.391-45.456-45.454v-90.83c0-7.615,6.174-13.788,13.788-13.788
	h190.002c7.614,0,13.788,6.173,13.788,13.788v59.159c0,25.064-20.391,45.454-45.454,45.454c-16.778,0-31.462-9.137-39.338-22.698
	c-6.968,4.349-15.194,6.864-23.995,6.864c-6.345,0-12.388-1.307-17.88-3.665v5.715C238.119,491.609,217.728,512,192.665,512z
	 M174.786,389.503v77.042c0,9.858,8.02,17.879,17.88,17.879c9.86,0,17.879-8.02,17.879-17.879V419.04
	c0-7.615,6.174-13.788,13.788-13.788c7.614,0,13.788,6.173,13.788,13.788c0,9.858,8.02,17.879,17.88,17.879
	s17.879-8.02,17.879-17.879c0-7.615,6.174-13.788,13.788-13.788s13.788,6.173,13.788,13.788v15.834
	c0,9.858,8.02,17.879,17.88,17.879s17.879-8.02,17.879-17.879v-45.372H174.786V389.503z"/>
<path style="fill:#F4DABB;" d="M350.101,128.006H161.897c6.853-39.433,39.861-78.591,65.933-103.216
	c15.539-14.67,40.798-14.67,56.337,0C310.241,49.416,343.249,88.573,350.101,128.006z"/>
<path style="fill:#A72328;" d="M350.127,141.794c-0.01,0-0.021,0-0.028,0H161.896c-4.069,0-7.931-1.798-10.55-4.913
	c-2.62-3.115-3.73-7.228-3.033-11.236c8.088-46.549,47.361-89.449,70.052-110.879C228.45,5.244,241.816,0,255.999,0
	c14.184,0,27.548,5.244,37.634,14.765c22.535,21.283,61.423,63.744,69.882,109.921c0.262,1.063,0.401,2.176,0.401,3.32
	C363.915,135.621,357.744,141.794,350.127,141.794z M179.886,114.218h152.226c-12.554-34.326-43.339-66.113-57.413-79.404
	c-4.944-4.667-11.586-7.239-18.7-7.239s-13.757,2.571-18.702,7.24C223.224,48.107,192.44,79.892,179.886,114.218z"/>
<g>
</g>
<g>
</g>
<g>
</g>
<g>
</g>
<g>
</g>
<g>
</g>
<g>
</g>
<g>
</g>
<g>
</g>
<g>
</g>
<g>
</g>
<g>
</g>
<g>
</g>
<g>
</g>
<g>
</g>
</svg>
